# xmcd CD database file
#
# Track frame offsets:
#	150
#	28617
#	50792
#	81825
#	102622
#	140285
#	174337
#	202935
#	224060
#	246780
#	264507
#
# Disc length: 3849 seconds
#
# Revision: 2
# Processed by: cddbd v1.4b41PL1 Copyright (c) Steve Scherf et al.
# Submitted via: Feurio! 1.50.2ß - http://www.feurio.com
#
DISCID=a00f070b
DTITLE=Various Artist - BACK TO LOVE
DYEAR=1900
DGENRE=
TTITLE0=ZOE - SUNSHINE ON A RAINY DAY
TTITLE1=THE FAMILY STAND - GHETTO HEAVEN
TTITLE2=DIANA BROWN  - THE MASTERPLAN
TTITLE3=YOUNG DISCIPLES - APPERENTLY NOTHING
TTITLE4=MANTRONIX  - GOT TO HAVE YOUR LOVE
TTITLE5=LISA LISA AND CULT JAM - LET THE BEAT HIT'EM
TTITLE6=PAUL SIMPSON - MUSICAL FREEDOM
TTITLE7=CHAKA KHAN - AIN'T NOBODY
TTITLE8=RICHIE HAVENS - GOING BACK TO MY ROOTS
TTITLE9=GWEN MCCRAE - ALL THIS LOVE THAT I'M GIVING
TTITLE10=SOUNDS OF BLACKNESS - OPTIMISTIC
EXTD=
EXTT0=
EXTT1=
EXTT2=
EXTT3=
EXTT4=
EXTT5=
EXTT6=
EXTT7=
EXTT8=
EXTT9=
EXTT10=
PLAYORDER=
